# xmcd
#
# Track frame offsets: 
#        150
#        24631
#        43230
#        63506
#        82745
#        100604
#        119222
#        139252
#        154602
#        174179
#
# Disc length: 2550 seconds
#
# Revision: 1
# Processed by: cddbd v1.5.2PL0 Copyright (c) Steve Scherf et al.
# Submitted via: ExactAudioCopyFreeDBPlugin 1.0
#
DISCID=7e09f40a
DTITLE=Planet 3 - Music From The Planet
DYEAR=2002
DGENRE=Rock
TTITLE0=Born To Love
TTITLE1=From The Beginning
TTITLE2=Insincere
TTITLE3=Criminal
TTITLE4=I Don't Want To Say Goodnight
TTITLE5=Welcome To Love
TTITLE6=The Day The Earth Stood Still
TTITLE7=Only Your Eyes
TTITLE8=Modern Girl
TTITLE9=Dreamers
EXTD=YEAR: 2002
EXTT0=
EXTT1=
EXTT2=
EXTT3=
EXTT4=
EXTT5=
EXTT6=
EXTT7=
EXTT8=
EXTT9=
PLAYORDER=
